# xmcd
#
# Track frame offsets:
#	150
#	18424
#	34986
#	51404
#	68169
#	83498
#	98254
#	113390
#	131528
#	147817
#	164768
#	180367
#	200442
#	220681
#	238189
#	255457
#	271090
#	288073
#	305438
#	322140
#
# Disc length: 4577 seconds
#
# Revision: 1
# Processed by: cddbd v1.5.2PL0 Copyright (c) Steve Scherf et al.
# Submitted via: audiograbber 1.83.01
#
DISCID=0f11df14
DTITLE=Various Artist - Ultimate Club 80 Disc 2
DYEAR=2005
DGENRE=Club
TTITLE0=Jermaine Jackson and Pia Zadora - When The Rain Begins To Fall
TTITLE1=Boys Town Gang - Can't Take My Eyes Off You
TTITLE2=Evelyn Thomas - High Energy
TTITLE3=Soul II Soul - Back To Life
TTITLE4=Inner City - Big Fun
TTITLE5=Traks - Long Train Runnin'
TTITLE6=Oliver Cheatham - Get Down Saturday Night
TTITLE7=Odyssey - Going Back To My Roots
TTITLE8=Maze - Back In Stride
TTITLE9=Joyce Sims - Come Into My Life
TTITLE10=Denis Edwards - Don't Look Any Further
TTITLE11=Delegation - Darlin' (I Think About You)
TTITLE12=Ashford and Simpson - Solid
TTITLE13=Stretch - Why Did You Do It
TTITLE14=Mai Tai - History
TTITLE15=Sydney Youngblood - If Only I Could
TTITLE16=Elkow Bones and The Racketeers - A Night In New York
TTITLE17=Skipworth and Turner - Thinking About Your Love
TTITLE18=Mike Anthony - Why Can't We Live Together
TTITLE19=Grace Jones - Victor Should Have Been a Jazz Musician
EXTD=
EXTT0=
EXTT1=
EXTT2=
EXTT3=
EXTT4=
EXTT5=
EXTT6=
EXTT7=
EXTT8=
EXTT9=
EXTT10=
EXTT11=
EXTT12=
EXTT13=
EXTT14=
EXTT15=
EXTT16=
EXTT17=
EXTT18=
EXTT19=
PLAYORDER=
